<svg xmlns="http://www.w3.org/2000/svg" viewBox="0 0 128 128" role="img" aria-label="Mana Chess">
  <defs>
    <linearGradient id="mc-bg" x1="18" y1="8" x2="110" y2="120" gradientUnits="userSpaceOnUse">
      <stop stop-color="#233122"/>
      <stop offset="1" stop-color="#07100b"/>
    </linearGradient>
    <linearGradient id="mc-gold" x1="34" y1="26" x2="94" y2="103" gradientUnits="userSpaceOnUse">
      <stop stop-color="#fff1ac"/>
      <stop offset=".58" stop-color="#e8bd63"/>
      <stop offset="1" stop-color="#a86b25"/>
    </linearGradient>
    <linearGradient id="mc-mana" x1="61" y1="38" x2="83" y2="88" gradientUnits="userSpaceOnUse">
      <stop stop-color="#a8ffe3"/>
      <stop offset="1" stop-color="#62bdf6"/>
    </linearGradient>
  </defs>

  <rect width="128" height="128" rx="24" fill="#080e0a"/>
  <rect x="10" y="10" width="108" height="108" rx="20" fill="url(#mc-bg)" stroke="#f0c56c" stroke-opacity=".48" stroke-width="3"/>

  <path d="M27 83h74v16H27z" fill="url(#mc-gold)"/>
  <path d="M34 79h60l-7-38-15 18-8-28-8 28-15-18-7 38Z" fill="url(#mc-gold)"/>
  <path d="M38 88h52v6H38z" fill="#1b1607" opacity=".24"/>

  <path d="M64 33c8 13 17 23 17 35 0 10-7 18-17 18s-17-8-17-18c0-12 9-22 17-35Z" fill="url(#mc-mana)" stroke="#f8fff4" stroke-opacity=".62" stroke-width="3"/>
  <circle cx="58" cy="64" r="5" fill="#f8fff4" opacity=".75"/>

  <path d="M30 103h68" stroke="#f8e7a8" stroke-opacity=".76" stroke-width="5" stroke-linecap="round"/>
  <path d="M25 25h16M25 41h16M87 25h16M87 41h16" stroke="#f0c56c" stroke-opacity=".2" stroke-width="4" stroke-linecap="round"/>
</svg>
